<?xml version="1.0" encoding="utf-8"?>
<!-- Generator: Adobe Illustrator 19.1.1, SVG Export Plug-In . SVG Version: 6.00 Build 0)  -->
<svg version="1.1" id="Layer_1" xmlns="http://www.w3.org/2000/svg" xmlns:xlink="http://www.w3.org/1999/xlink" x="0px" y="0px"
	 viewBox="0 0 1200 792" style="enable-background:new 0 0 1200 792;" xml:space="preserve">
<style type="text/css">
	.st0{fill:#F1B724;}
	.st1{fill:#F6EC27;}
</style>
<g>
	<path class="st0" d="M1005.3,493.6c-13.6,0-26.3-2.9-37.7-8.7c-23-11.7-38.8-30.7-45.5-54.9c-8.1-29.3-3.6-56.1,13.6-79.5
		c17.3-23.6,40.7-35.8,69.4-36.2c0.5,0,1,0,1.5,0c21.9,0,40,6,55.3,18.4c17.7,14.2,28.7,32.5,32.7,54.4c0.2,0.9,0.3,1.9,0.3,2.8
		c0.2,1.9,0.3,3.6,1.2,5.1l0.2,0.4v18.6l-0.1,0.3c-1.1,3.2-1.9,6.7-2.6,10c-0.9,4.3-1.9,8.8-3.8,13.1c-13.6,31-35.8,49.4-66.2,54.7
		C1017.5,493,1011.3,493.6,1005.3,493.6z M1007.6,338.2c-16.7,0-32.4,6.6-44.4,18.6c-12.6,12.7-19.6,29.7-19.6,47.9
		c0,37.1,27.5,65,63.8,65c37-0.1,63.7-27.6,63.7-65.6C1071,367.8,1042.5,338.2,1007.6,338.2v-1.6V338.2z"/>
	<path class="st0" d="M818.8,555.9c-17.9,0-35.6-4.1-52.4-12.3c-8.9-4.3-16.7-10.7-23.3-18.9c-4.9-6.2-5.4-12.2-1.2-16.4
		c2.2-2.2,5.1-3.3,8.4-3.3c3.7,0,7.2,1.5,9.9,4.3c7.7,7.7,14.3,12.4,21.4,15.5c13.4,5.6,26.3,8.5,38.3,8.5
		c15.5,0,30.4-4.8,44.1-14.1c10.8-7.4,16.5-18.9,17.9-36.2c0.5-6.3,1-13.6,0.9-22c-7.9,8.9-16.7,15.6-26.8,20.5
		c-12.2,5.9-25.1,8.9-38.6,8.9c-40,0-74.9-26.5-84.9-64.4c-6.9-26.3-1.4-53.8,15.1-75.6c16.7-21.9,41.9-34.8,69.4-35.2
		c0.5,0,1,0,1.5,0c24.2,0,45.9,8.3,66.4,25.4c8.4,7,12.9,17,16.3,25.7c4.9,12.3,7,23.1,6.7,33.8c-0.4,11.9-0.3,24.1-0.3,35.8
		c0,8.9,0.1,18-0.1,27.1c-0.2,13.2-0.9,28.6-6,43c-8.9,25-27.8,40.8-56,47C836.6,554.9,827.6,555.9,818.8,555.9z M820.6,339
		c-37.6,0-65.9,28.2-66,65.7c0,17.9,6.2,33.3,18,44.6c11.6,11.1,28.2,17.3,46.7,17.3c38.6,0,64.5-25.3,64.5-63
		C883.9,366.2,857.3,339,820.6,339v-1.6V339z"/>
	<path class="st1" d="M505.6,492.1c-11.5,0-23.3-6.8-29.3-17c-5.1-8.6-7.7-18.4-7.8-29c-0.1-12.7-0.1-25.7-0.1-38.2l0-12
		c0-8.9-0.8-17.9-1.6-25.6c-2.1-21.3-19.6-31-34.9-31c-3.2,0-6.4,0.4-9.5,1.2c-16.7,4.3-37.3,15.9-41,46.7l-0.4,3.2
		c-0.9,7.7-1.9,15.7-1.6,23.6c0.2,4.1-0.9,7.5-3.2,9.8c-2.2,2.3-5.5,3.5-9.3,3.5c-0.5,0-0.9,0-1.4-0.1c-6.8-0.5-10.6-4.5-10.6-11.2
		l0-4.7c-0.1-11-0.2-22.4-1.9-33.5c-2.6-17.3-12-29.6-27.3-35.8c-5.6-2.3-11.2-3.4-16.7-3.4c-9.7,0-18.7,3.6-27,10.6
		c-13.3,11.2-16.3,24.3-16.3,24.3s-3.6,20-9.7,34.5c-6.2,14.5-16.9,29.5-16.9,29.5c-0.5-23.7-0.6-56.3,8-77.6
		c11.1-27.7,35-44.9,62.5-44.9c10.9,0,22,2.7,32.9,7.9c7.7,3.7,14,9.7,18.9,17.7c1.9,3.1,3.6,6.3,5.4,9.6c0.4,0.7,0.8,1.5,1.2,2.2
		c0.8-1.5,1.6-2.9,2.5-4.3c11.3-18.7,27.9-29.2,50.6-32.2c3.1-0.4,6.1-0.6,9.1-0.6c10.1,0,19.9,2.3,30,6.9c19.5,9,29.6,25.1,32,50.6
		c1.4,15,1.2,30.2,1.1,45c-0.1,8.1-0.1,16.4,0,24.6c0.1,3.8,0.3,6.8,0.8,9.6c1.9,12,9.9,19.2,21.2,19.2c1.6,0,3.2-0.1,4.9-0.4
		c2.6-0.4,8.5-1.9,12.9-4.1s7.3-5,7.3-5s-4,13.3-12.2,20.8C521.6,488.9,513.7,492.1,505.6,492.1z"/>
	<path class="st1" d="M265.9,392.2c0.5,16.9,0.1,40.9-5.9,57.8c-7.9,22.4-24.9,36.2-50.3,40.8c-4.5,0.8-9.1,1.3-13.4,1.3
		c-8.3,0-16.3-1.5-23.9-4.4c-18.1-7-29.4-21.1-35.5-44.3c-2.7-10.3-4-21.4-4-33.8l0-11.4c0-22.4,0-45.6,0-68.4
		c0-5.5,1.9-9.2,5.9-11.2c2.3-1.2,4.7-1.8,7.1-1.8c2.4,0,4.8,0.6,7,1.8c4.3,2.3,4.9,6.5,4.9,10.2c0,8.4,0,16.8,0,25.2
		c0,12.1,0,24.5-0.1,36.8c-0.1,13.6,0.8,28.1,2.9,44.2c2.2,17.1,16.7,30.2,34.4,31.2c1.1,0.1,2.3,0.1,3.4,0.1
		c4.2,0,8.4-0.4,12.5-1.3c6.6-1.3,18.7-8.1,28.3-18.8c7.7-8.7,14.9-20.1,17.2-24.5C263.7,407.7,265.9,392.2,265.9,392.2z"/>
	<path class="st1" d="M671.4,492.2c-4.2,0-7.5-1.9-9.7-5.5c-1.9-3.2-2.9-6.9-2.9-11.1c-0.1-53.2-0.1-101.7,0-148.2
		c0-7.4,4.9-11.9,12.7-11.9c7.9,0,11.9,4,11.9,11.9c0,18.3,0,36.6,0,54.9l0,18.6l0,1.6l0,17.2c0,18.6,0,37.3,0,55.9
		c0,4-0.5,7-1.7,9.8c-1.8,4.3-5.1,6.6-9.6,6.9C671.8,492.2,671.6,492.2,671.4,492.2z"/>
	<path class="st1" d="M527.3,489.7l7-5.1c7.5-7.1,11-16.3,11-28.9c-0.1-33.1-0.1-66,0-98.6l0-28.1c0-7,2.8-11.2,8.6-13
		c1.5-0.5,3.1-0.7,4.6-0.7c6.8,0,11.5,5.1,11.5,12.3l0,19.1c0.1,32.8,0.1,66.8-0.1,100.1c-0.1,12.6-6.2,23.4-19.3,33.8
		c-3.9,3.1-8.6,5.6-14.1,7.4L527.3,489.7z"/>
	<path class="st1" d="M657.4,275l-1.2-1.5c-6.7-8.1-5.7-18.4,2.3-25.6c3.3-2.9,7.6-4.5,12.3-4.5c5,0,9.8,1.9,13.3,5.2
		c7.4,7,8.2,18.4,1.9,25.8c-5.2,6.1-14.6,25.7-14.6,25.7S662.3,281,657.4,275z M671.2,254.8c-4.6,0.1-7.7,3.3-7.8,7.9
		c0,2.4,0.7,4.5,2.2,5.9c1.4,1.4,3.5,2.2,5.8,2.2c2.4,0,4.4-0.8,5.8-2.2c1.4-1.5,2.2-3.5,2.2-6c0-4.8-3.2-7.9-8.1-7.9L671.2,254.8z"
		/>
	<path class="st1" d="M557.8,282.3c-5,0-10-2.2-13.6-5.9c-3.6-3.7-5.7-8.8-5.6-13.8c0.2-10.5,8.9-19,19.3-19c5.2,0,10.1,2,13.7,5.7
		c3.6,3.6,5.6,8.5,5.6,13.7c0,10.7-8.7,19.3-19.3,19.3L557.8,282.3z M557.6,254.9c-4.6,0.1-7.7,3.3-7.7,8c0,2.4,0.7,4.4,2.2,5.9
		c1.4,1.4,3.5,2.2,5.8,2.2c2.4,0,4.4-0.8,5.8-2.2c1.4-1.5,2.2-3.5,2.2-6c-0.1-4.8-3.2-7.8-8.1-7.8L557.6,254.9z"/>
</g>
<circle class="st1" cx="615.6" cy="227" r="10.6"/>
<circle class="st1" cx="642.9" cy="236.2" r="10.6"/>
<circle class="st1" cx="586.4" cy="236" r="10.6"/>
</svg>
